<svg viewBox="0 0 640 400" data-background-color="#ffffff" preserveAspectRatio="xMidYMid meet" height="400" width="640"
  xmlns="http://www.w3.org/2000/svg"
  xmlns:xlink="http://www.w3.org/1999/xlink">
  <rect width="640" height="400" x="0" y="0" opacity="1" fill="none" data-fill-palette-color="background" id="background"></rect>
  <g id="tight-bounds" transform="matrix(1,0,0,1,122.24000000000001,76.4)">
    <svg viewBox="0 0 395.52 247.2" height="247.2" width="395.52">
      <g>
        <svg></svg>
      </g>
      <g>
        <svg viewBox="0 0 395.52 247.2" height="247.2" width="395.52">
          <g transform="matrix(1,0,0,1,81.54890053475935,47.215199999999996)">
            <svg viewBox="0 0 232.42219893048127 152.7696" height="152.7696" width="232.42219893048127">
              <g>
                <svg viewBox="0 0 232.42219893048127 152.7696" height="152.7696" width="232.42219893048127">
                  <g>
                    <svg viewBox="0 0 232.42219893048127 152.7696" height="152.7696" width="232.42219893048127">
                      <g>
                        <svg viewBox="0 0 232.42219893048127 152.7696" height="152.7696" width="232.42219893048127">
                          <g id="textblocktransform">
                            <svg viewBox="0 0 232.42219893048127 152.7696" height="152.7696" width="232.42219893048127" id="textblock">
                              <g>
                                <svg viewBox="0 0 232.42219893048127 152.7696" height="152.7696" width="232.42219893048127">
                                  <g transform="matrix(1,0,0,1,0,0)">
                                    <svg width="232.42219893048127" viewBox="1.9800000190734863 -36.040000915527344 55.560001373291016 36.53000259399414" height="152.7696" data-palette-color="#0080ff">
                                      <path d="M20.8-10.69L20.8-35.55 22.97-35.55 22.97-10.69Q22.97-7.08 21.59-4.58 20.21-2.08 17.83-0.79 15.45 0.49 12.48 0.49L12.48 0.49Q9.3 0.49 6.95-0.63 4.59-1.76 3.28-4.04 1.98-6.32 1.98-9.79L1.98-9.79 4.13-9.79Q4.13-5.71 6.27-3.58 8.42-1.44 12.48-1.44L12.48-1.44Q14.77-1.44 16.65-2.49 18.53-3.54 19.67-5.6 20.8-7.67 20.8-10.69L20.8-10.69ZM57.54-16.5L57.54-4.03Q56.96-3.17 55.43-2.12 53.9-1.07 51.4-0.29 48.9 0.49 45.29 0.49L45.29 0.49Q41.18 0.49 38.02-1.49 34.86-3.47 33.09-7.06 31.32-10.64 31.32-15.45L31.32-15.45 31.32-20.51Q31.32-25.2 32.99-28.69 34.67-32.18 37.72-34.11 40.77-36.04 44.85-36.04L44.85-36.04Q48.75-36.04 51.44-34.68 54.12-33.33 55.64-30.99 57.15-28.66 57.49-25.73L57.49-25.73 55.34-25.73Q54.98-27.95 53.83-29.86 52.68-31.76 50.5-32.93 48.31-34.11 44.85-34.11L44.85-34.11Q41.31-34.11 38.75-32.39 36.2-30.66 34.84-27.61 33.47-24.56 33.47-20.56L33.47-20.56 33.47-15.45Q33.47-11.28 34.93-8.13 36.4-4.98 39.06-3.21 41.72-1.44 45.29-1.44L45.29-1.44Q48.12-1.44 50.18-2 52.24-2.56 53.55-3.34 54.86-4.13 55.37-4.79L55.37-4.79 55.37-14.55 45.16-14.55 45.16-16.5 57.54-16.5Z" opacity="1" transform="matrix(1,0,0,1,0,0)" fill="#0080ff" class="undefined-text-0" data-fill-palette-color="primary" id="text-0"></path>
                                    </svg>
                                  </g>
                                </svg>
                              </g>
                            </svg>
                          </g>
                        </svg>
                      </g>
                    </svg>
                  </g>
                </svg>
              </g>
            </svg>
          </g>
          <g>
            <path d="M239.811 0c68.262 0 123.6 55.338 123.6 123.6 0 68.262-55.338 123.6-123.6 123.6-30.402 0-58.24-10.976-79.768-29.183l11.147 0c19.26 14.022 42.974 22.294 68.621 22.295 64.458 0 116.712-52.254 116.712-116.712 0-64.458-52.254-116.712-116.712-116.712-25.647 0-49.361 8.272-68.621 22.295l-11.147 0c21.528-18.206 49.366-29.183 79.768-29.183z" fill="#0080ff" stroke="transparent" data-fill-palette-color="tertiary"></path>
          </g>
        </svg>
      </g>
      <defs></defs>
    </svg>
    <rect width="395.52" height="247.2" fill="none" stroke="none" visibility="hidden"></rect>
  </g>
</svg>