<?xml version="1.0" standalone="no"?>
<!DOCTYPE svg PUBLIC "-//W3C//DTD SVG 20010904//EN"
 "http://www.w3.org/TR/2001/REC-SVG-20010904/DTD/svg10.dtd">
<svg version="1.0" xmlns="http://www.w3.org/2000/svg"
 width="300.000000pt" height="187.000000pt" viewBox="0 0 300.000000 187.000000"
 preserveAspectRatio="xMidYMid meet">

<g transform="translate(0.000000,187.000000) scale(0.100000,-0.100000)"
fill="#000000" stroke="none">
<path d="M864 1159 l-181 -181 -109 86 c-117 93 -134 98 -191 61 -23 -15 -23
-17 -23 -240 l0 -225 40 -20 c21 -11 45 -20 52 -20 7 0 62 39 122 86 l110 85
180 -180 181 -181 110 44 c69 28 112 51 116 63 10 24 11 695 1 709 -6 9 -207
94 -222 94 -3 0 -87 -81 -186 -181z m186 -275 c0 -159 -2 -176 -16 -170 -31
12 -213 161 -211 173 3 14 198 171 215 172 9 1 12 -40 12 -175z m-523 64 l63
-62 -62 -63 c-34 -35 -66 -63 -70 -63 -4 0 -8 56 -8 125 0 69 3 125 7 125 4 0
36 -28 70 -62z" fill="#652178"/>
<path d="M2461 1170 c-148 -31 -178 -185 -51 -265 22 -14 63 -37 92 -51 61
-30 91 -65 91 -106 0 -63 -82 -99 -169 -74 -27 8 -59 17 -72 21 -22 7 -23 5
-20 -26 2 -29 8 -36 38 -46 19 -7 64 -12 100 -12 116 -1 190 54 190 142 0 73
-41 117 -168 181 -29 15 -62 36 -72 46 -21 21 -26 70 -10 100 21 39 121 52
187 25 19 -8 37 -15 39 -15 11 0 2 69 -9 73 -30 11 -125 15 -166 7z" fill="#652178"/>
<path d="M1537 1163 c-4 -3 -7 -17 -7 -30 0 -22 3 -23 80 -23 l80 0 0 -245 0
-245 30 0 30 0 2 243 3 242 78 3 77 3 0 29 0 30 -183 0 c-101 0 -187 -3 -190
-7z" fill="#652178"/>
<path d="M1980 895 l0 -275 30 0 30 0 0 120 0 120 100 0 100 0 0 30 0 30 -100
0 -100 0 0 95 0 94 108 3 c107 3 107 3 107 28 l0 25 -137 3 -138 3 0 -276z" fill="#652178"/>
</g>
</svg>
